<svg width="171" height="248" viewBox="0 0 171 248" fill="none" xmlns="http://www.w3.org/2000/svg">
<path d="M59.2076 41.4237L40.1187 12.3504C48.1624 7.62302 57.0466 4.07749 66.5311 2.06836L73.1342 36.0463C68.2119 37.2282 63.5297 39.06 59.2076 41.4237Z" fill="#4EC34E"/>
<path d="M54.3453 44.4964L35.2563 15.4231C30.334 18.7323 25.7718 22.5142 21.6299 26.7097L47.8022 49.8738C49.8432 47.9238 52.0042 46.151 54.3453 44.4964Z" fill="#2EB84E"/>
<path d="M85.8003 34.5689C91.0828 34.5689 96.1251 35.3371 100.927 36.6962L112.453 4.01827C104.049 1.41821 95.0446 0 85.8003 0C81.1781 0 76.676 0.354553 72.2339 1.00457L78.837 34.9826C81.1181 34.7462 83.4592 34.5689 85.8003 34.5689Z" fill="#6DCD4D"/>
<path d="M135.143 57.7328L158.134 43.9052C160.115 42.7234 160.715 40.0642 159.395 38.1733C149.31 23.6366 134.843 12.2909 117.975 5.84985L106.45 38.5278C115.814 42.3097 123.858 48.6326 129.741 56.5509C130.941 58.3237 133.342 58.7964 135.143 57.7328Z" fill="#8DD84C"/>
<path d="M99.1865 139.753L105.79 173.79C115.274 171.662 124.218 167.999 132.322 163.153L113.173 134.08C108.851 136.621 104.169 138.512 99.1865 139.753Z" fill="#4EC34E"/>
<path d="M85.8001 141.407C80.6377 141.407 75.5953 140.698 70.8531 139.339L59.3276 172.076C67.6716 174.617 76.5557 175.976 85.8001 175.976C90.6624 175.976 95.4046 175.563 100.087 174.853L93.4837 140.876C90.9625 141.23 88.3813 141.407 85.8001 141.407Z" fill="#6DCD4D"/>
<path d="M118.035 130.948L137.124 160.022C142.046 156.653 146.549 152.753 150.691 148.499L124.518 125.394C122.477 127.403 120.316 129.235 118.035 130.948Z" fill="#2EB84E"/>
<path d="M35.7969 117.416L12.8061 131.244C10.8251 132.425 10.2249 135.026 11.5455 136.976C21.7503 151.926 36.5172 163.626 53.8654 170.185L65.3908 137.507C55.6662 133.607 47.2623 126.989 41.3195 118.598C40.0589 116.825 37.6578 116.293 35.7969 117.416Z" fill="#8DD84C"/>
<path d="M17.7281 30.9644C16.3475 32.5598 15.0869 34.1553 13.8263 35.8099C12.4456 37.6418 12.9259 40.3009 14.9068 41.6009L75.8955 79.1836L43.9005 54.0694L17.7281 30.9644Z" fill="#0EAD4F"/>
<path d="M99.8467 98.6248L128.36 121.139L154.532 144.244C155.913 142.648 157.174 140.994 158.434 139.28C159.815 137.389 159.275 134.789 157.354 133.548L99.8467 98.6248Z" fill="#0EAD4F"/>
<path d="M21.2097 85.9199C19.9492 84.5608 18.1483 83.4971 15.6871 82.788L10.4047 81.1925C9.2041 80.838 8.3637 80.3062 7.76342 79.5971C7.22317 78.888 6.92302 78.1198 6.92302 77.2334C6.92302 76.4652 7.10311 75.8152 7.5233 75.2833C7.88347 74.6924 8.42373 74.2788 9.14407 73.9833C9.86441 73.6878 10.7048 73.5106 11.6653 73.5106C13.226 73.5106 14.6066 73.9242 15.8072 74.6924C17.0078 75.4606 17.9082 76.6425 18.4484 78.1198L18.5685 78.3561L23.0106 76.4652L22.9506 76.2288C22.4703 74.8106 21.69 73.4515 20.6095 72.3878C19.529 71.2651 18.2083 70.3787 16.7076 69.7878C15.2069 69.1377 13.5261 68.8423 11.7253 68.8423C9.80438 68.8423 8.06356 69.1968 6.56285 69.9059C5.06215 70.6151 3.86158 71.6787 3.02119 72.9787C2.18079 74.2788 1.76059 75.8152 1.76059 77.4697C1.76059 79.4198 2.36088 81.1335 3.56144 82.6108C4.76201 84.0881 6.50283 85.1517 8.7839 85.8608L14.4266 87.5745C15.5671 87.9291 16.4075 88.4018 17.0078 88.9927C17.548 89.5836 17.8482 90.3518 17.8482 91.3564C17.8482 92.0655 17.6681 92.7155 17.2479 93.3064C16.8277 93.8383 16.2874 94.311 15.5071 94.6065C14.7867 94.9019 13.8863 95.0792 12.8058 95.0792C11.065 95.0792 9.50424 94.6065 8.18362 93.661C6.86299 92.7155 5.78249 91.3564 5.12218 89.5836L5.00212 89.3473L0.5 91.1791L0.560028 91.4155C1.10028 93.011 1.94068 94.4883 3.08121 95.7292C4.22175 96.9702 5.66243 97.9747 7.28319 98.6838C8.90396 99.3929 10.7048 99.7475 12.6257 99.7475C14.6667 99.7475 16.4675 99.3929 18.0282 98.6247C19.589 97.9156 20.8496 96.852 21.75 95.5519C22.6504 94.2519 23.1306 92.7155 23.1306 91.0609C23.0706 89.0518 22.4703 87.3381 21.2097 85.9199Z" fill="white"/>
<path d="M50.1434 82.4926C49.183 80.779 47.8624 79.4199 46.1816 78.4153C44.5008 77.4107 42.5799 76.938 40.4789 76.938C38.7381 76.938 37.1773 77.2925 35.7967 78.0016C34.9563 78.4153 34.2359 79.0062 33.5156 79.7744V77.4698H28.6533V107.252H33.7557V97.2066C34.416 97.9157 35.0763 98.3884 35.7967 98.743C37.1773 99.4521 38.7981 99.8066 40.5389 99.8066C42.6399 99.8066 44.5608 99.2748 46.2416 98.2702C47.9224 97.2657 49.243 95.9066 50.2035 94.1929C51.1639 92.4792 51.6441 90.5292 51.6441 88.4019C51.5841 86.1564 51.1039 84.2063 50.1434 82.4926ZM39.9386 81.6063C41.1392 81.6063 42.2797 81.9017 43.2402 82.4926C44.2006 83.0836 44.981 83.9109 45.4612 84.8563C46.0015 85.8609 46.2416 86.9837 46.2416 88.2837C46.2416 89.5837 45.9415 90.7655 45.4012 91.7701C44.861 92.7747 44.1406 93.602 43.1802 94.1929C42.2197 94.7838 41.1392 95.0793 39.8786 95.0793C38.678 95.0793 37.6576 94.7838 36.6971 94.1929C35.7367 93.602 34.9563 92.8338 34.416 91.7701C33.8758 90.7655 33.5756 89.5837 33.5756 88.2837C33.5756 87.0427 33.8758 85.8609 34.416 84.8563C34.9563 83.8518 35.7367 83.0245 36.6971 82.4336C37.7176 81.9017 38.7981 81.6063 39.9386 81.6063Z" fill="white"/>
<path d="M76.6159 83.4972C76.1357 82.2563 75.4153 81.0744 74.5149 80.129C73.6145 79.1244 72.474 78.3562 71.1533 77.7653C69.8327 77.1744 68.332 76.938 66.6512 76.938C64.6103 76.938 62.7494 77.4107 61.0686 78.4153C59.3878 79.4199 58.0672 80.779 57.1668 82.4336C56.2063 84.1472 55.7261 86.0973 55.7261 88.2837C55.7261 90.411 56.2063 92.361 57.1668 94.1338C58.1272 95.8475 59.4478 97.2657 61.1286 98.2703C62.8094 99.2748 64.7903 99.8067 67.0114 99.8067C68.5121 99.8067 69.9528 99.5703 71.2134 99.0975C72.474 98.6248 73.6145 97.9748 74.5149 97.1475C75.4153 96.3202 76.1357 95.3747 76.5559 94.3702L76.6759 94.1338L72.534 92.0656L72.4139 92.3019C71.8737 93.1883 71.1533 93.8974 70.3129 94.4884C69.4725 95.0202 68.392 95.3156 67.0714 95.3156C65.8708 95.3156 64.7903 95.0202 63.8299 94.4293C62.8694 93.8383 62.1491 93.0701 61.6088 92.0065C61.3087 91.4156 61.1286 90.7065 61.0086 89.9383H77.0361L77.0961 89.761C77.1562 89.4064 77.2162 89.0519 77.2762 88.6973C77.2762 88.3428 77.3362 87.9882 77.3362 87.6337C77.3362 86.0973 77.0961 84.7381 76.6159 83.4972ZM61.1886 85.8018C61.3087 85.3291 61.4288 84.8563 61.6088 84.5018C62.0891 83.4381 62.8094 82.6108 63.6498 82.079C64.5502 81.5472 65.5707 81.2517 66.6512 81.2517C67.7918 81.2517 68.8122 81.5472 69.6526 82.079C70.493 82.6108 71.1533 83.379 71.5735 84.3836C71.7536 84.7972 71.8737 85.3291 71.9337 85.8609H61.1886V85.8018Z" fill="white"/>
<path d="M98.286 91.5338C97.8658 92.5974 97.1454 93.4838 96.245 94.1338C95.2846 94.7838 94.204 95.0793 93.0035 95.0793C91.8029 95.0793 90.7824 94.7838 89.822 94.1929C88.9216 93.602 88.1412 92.8338 87.6009 91.7701C87.0607 90.7656 86.7605 89.5837 86.7605 88.2837C86.7605 86.9837 87.0607 85.8018 87.5409 84.7973C88.0812 83.7927 88.8015 82.9654 89.762 82.4336C90.6624 81.8427 91.7429 81.5472 92.9435 81.5472C94.144 81.5472 95.2846 81.8427 96.185 82.4927C97.1454 83.1427 97.8057 83.97 98.2259 85.0336L98.346 85.27L102.848 83.2609L102.788 83.0245C102.308 81.7836 101.588 80.6608 100.627 79.7744C99.6666 78.888 98.5261 78.1198 97.2055 77.588C95.8848 77.0562 94.5042 76.8198 93.0035 76.8198C90.7824 76.8198 88.8015 77.2926 87.1207 78.2971C85.3799 79.3017 84.0593 80.6608 83.0388 82.3745C82.0783 84.0882 81.5381 86.0382 81.5381 88.1655C81.5381 90.3519 82.0183 92.302 83.0388 94.0156C83.9992 95.7293 85.3799 97.0884 87.1207 98.093C88.8615 99.0976 90.8425 99.6294 93.0035 99.6294C94.5042 99.6294 95.9449 99.3339 97.2655 98.8021C98.5861 98.2703 99.7266 97.5021 100.687 96.6157C101.648 95.6702 102.368 94.6066 102.848 93.4838L102.908 93.2474L98.406 91.1792L98.286 91.5338Z" fill="white"/>
<path d="M110.111 72.2698L115.214 69.197V77.3517H120.136V81.9609H115.214V91.7702C115.214 92.4793 115.334 93.0702 115.574 93.543C115.814 94.0157 116.114 94.3703 116.594 94.6066C117.075 94.843 117.735 94.9612 118.575 94.9612C118.755 94.9612 118.996 94.9612 119.296 94.9021H119.476C119.656 94.9021 119.896 94.843 120.076 94.843L120.376 94.7839V99.1567L120.136 99.2158C119.776 99.2749 119.356 99.334 118.875 99.3931C118.395 99.4522 117.975 99.4522 117.615 99.4522C115.274 99.4522 113.413 98.8022 112.152 97.5022C110.832 96.2021 110.171 94.3112 110.171 92.0066V81.9609H106.33V77.3517H108.251C109.331 77.3517 110.171 76.5245 110.171 75.4608V72.2698H110.111Z" fill="white"/>
<path d="M135.744 77.115C134.183 77.115 132.862 77.4105 131.782 78.0605C131.182 78.415 130.701 78.8287 130.281 79.4196V77.3514H125.419V99.2155H130.521V86.6288C130.521 85.0333 130.942 83.7924 131.842 82.9651C132.682 82.0787 133.883 81.6651 135.264 81.6651H137.425V77.0559H135.744V77.115Z" fill="white"/>
<path d="M158.315 80.6017C157.534 79.4199 156.454 78.5335 155.133 77.8835C153.752 77.2334 152.192 76.938 150.451 76.938C149.01 76.938 147.69 77.1744 146.429 77.6471C145.168 78.1198 144.088 78.7698 143.187 79.5971C142.287 80.4244 141.567 81.429 141.146 82.4926L141.026 82.729L145.348 84.7972L145.468 84.5609C145.889 83.6154 146.489 82.8472 147.329 82.2563C148.17 81.6654 149.19 81.3699 150.271 81.3699C151.531 81.3699 152.492 81.6654 153.272 82.3154C153.992 82.9654 154.353 83.6745 154.353 84.6791V85.27L147.69 86.3336C146.009 86.6291 144.568 87.0427 143.427 87.6928C142.287 88.3428 141.447 89.1701 140.906 90.1155C140.366 91.061 140.066 92.1838 140.066 93.3656C140.066 94.6656 140.366 95.7884 141.026 96.7339C141.687 97.6793 142.587 98.4475 143.728 98.9794C144.868 99.5112 146.189 99.7476 147.69 99.7476C148.89 99.7476 150.091 99.5703 151.111 99.2157C152.132 98.8612 153.092 98.3884 153.872 97.7384C154.053 97.5611 154.293 97.3839 154.473 97.2066V99.2748H159.335V84.62C159.455 83.1427 159.095 81.7835 158.315 80.6017ZM154.413 89.3473V90.1155C154.413 91.1201 154.173 92.0656 153.692 92.8929C153.212 93.7202 152.492 94.4293 151.651 94.902C150.751 95.3747 149.73 95.6702 148.59 95.6702C147.69 95.6702 146.909 95.4338 146.369 94.9611C145.829 94.4884 145.528 93.8974 145.528 93.1883C145.528 92.4201 145.769 91.8292 146.309 91.3565C146.849 90.8246 147.69 90.4701 148.83 90.2928L154.413 89.3473Z" fill="white"/>
<path d="M170.5 68.8423H165.397V99.2748H170.5V68.8423Z" fill="white"/>
<path d="M26.8943 216.454H30.1824L25.9377 209.174C27.0138 208.759 27.8508 208.108 28.4486 207.22C29.1063 206.333 29.4052 205.267 29.4052 204.024C29.4052 202.841 29.166 201.834 28.628 201.006C28.0899 200.177 27.3725 199.526 26.416 199.053C25.4595 198.579 24.3834 198.402 23.1877 198.402H16.5518V216.454H19.4214V209.647H23.0084L26.8943 216.454ZM19.4811 200.887H23.2475C23.9051 200.887 24.4432 201.006 24.9812 201.302C25.4595 201.539 25.878 201.894 26.1171 202.367C26.416 202.841 26.5356 203.373 26.5356 204.024C26.5356 204.616 26.416 205.149 26.1171 205.622C25.8182 206.096 25.4595 206.451 24.9812 206.688C24.5029 206.925 23.9051 207.102 23.2475 207.102H19.4214V200.887H19.4811Z" fill="white"/>
<path d="M44.4706 213.494L42.1988 212.37C41.8401 212.962 41.4216 213.376 40.8238 213.731C40.2857 214.086 39.5683 214.264 38.7912 214.264C38.014 214.264 37.3564 214.086 36.6987 213.731C36.1009 213.376 35.6226 212.843 35.2639 212.192C35.0248 211.719 34.9052 211.245 34.9052 210.653H44.7695C44.8293 210.476 44.8293 210.239 44.8891 210.002C44.8891 209.765 44.8891 209.529 44.8891 209.351C44.8891 208.523 44.7695 207.694 44.4706 206.925C44.1717 206.155 43.7532 205.504 43.2151 204.912C42.6771 204.32 42.0195 203.847 41.2423 203.492C40.4651 203.137 39.5683 202.959 38.552 202.959C37.3564 202.959 36.2205 203.255 35.2042 203.847C34.1878 204.439 33.4107 205.267 32.8726 206.273C32.2748 207.28 32.0356 208.463 32.0356 209.765C32.0356 211.068 32.3346 212.251 32.8726 213.257C33.4704 214.323 34.2476 215.151 35.2639 215.743C36.2803 216.335 37.4161 216.631 38.7912 216.631C39.6879 216.631 40.5249 216.513 41.3021 216.217C42.0792 215.921 42.7369 215.566 43.2749 215.092C43.813 214.678 44.1717 214.145 44.4706 213.494ZM35.2639 207.457C35.5629 206.806 36.0411 206.273 36.5792 205.918C37.177 205.563 37.7748 205.386 38.4922 205.386C39.2096 205.386 39.8673 205.563 40.4053 205.918C40.9434 206.273 41.3618 206.747 41.601 207.398C41.7205 207.753 41.8401 208.108 41.8401 208.523H34.965C35.0248 208.108 35.1444 207.753 35.2639 207.457Z" fill="white"/>
<path d="M56.8459 203.61C56.009 203.196 55.1122 203.018 54.0361 203.018C53.1991 203.018 52.3622 203.136 51.6448 203.432C50.9274 203.728 50.2698 204.083 49.7317 204.616C49.1937 205.09 48.7752 205.681 48.536 206.333L50.8676 207.457C51.1067 206.865 51.5252 206.333 52.0633 205.977C52.6013 205.622 53.2589 205.445 53.9763 205.445C54.7535 205.445 55.4111 205.622 55.8894 206.037C56.3677 206.451 56.6068 206.984 56.6068 207.575V208.049L52.3622 208.759C51.3459 208.937 50.5089 209.174 49.8513 209.588C49.1937 210.002 48.7154 210.476 48.3567 211.008C47.998 211.541 47.8784 212.192 47.8784 212.902C47.8784 213.672 48.0578 214.323 48.4165 214.915C48.7752 215.506 49.3132 215.921 49.9708 216.217C50.6285 216.513 51.4654 216.69 52.3622 216.69C53.0796 216.69 53.797 216.572 54.3948 216.394C54.9926 216.158 55.5905 215.862 56.009 215.506C56.2481 215.329 56.4274 215.092 56.6666 214.855V216.394H59.297V207.575C59.297 206.688 59.0579 205.859 58.6394 205.208C58.2807 204.557 57.6231 203.965 56.8459 203.61ZM56.1285 212.784C55.8296 213.317 55.3513 213.731 54.8133 214.086C54.2752 214.382 53.6176 214.56 52.8404 214.56C52.2426 214.56 51.7643 214.382 51.3459 214.086C50.9872 213.79 50.748 213.376 50.748 212.843C50.748 212.37 50.9274 211.896 51.2861 211.6C51.6448 211.245 52.1828 211.008 52.9002 210.89L56.547 210.298V211.008C56.6068 211.659 56.4872 212.251 56.1285 212.784Z" fill="white"/>
<path d="M66.3511 198.046H63.6011V216.394H66.3511V198.046Z" fill="white"/>
<path d="M88.1124 213.908H79.0254V208.641H87.6342V206.096H79.0254V200.887H88.1124V198.342H76.1558V216.453H88.1124V213.908Z" fill="white"/>
<path d="M101.384 212.784C101.384 211.896 101.085 211.127 100.488 210.417C99.8897 209.706 99.0528 209.292 97.9767 208.996L95.8245 208.345C95.5256 208.286 95.2864 208.167 94.9875 208.049C94.7484 207.931 94.5092 207.753 94.3299 207.576C94.1505 207.398 94.0908 207.102 94.0908 206.806C94.0908 206.333 94.2701 205.978 94.6288 205.682C94.9875 205.386 95.4658 205.267 96.0636 205.267C96.781 205.267 97.3788 205.445 97.9767 205.8C98.5147 206.155 98.9332 206.688 99.1723 207.339L101.325 206.333C100.906 205.267 100.248 204.439 99.2919 203.847C98.3354 203.255 97.2593 202.959 96.0636 202.959C95.1669 202.959 94.3299 203.137 93.6125 203.432C92.8951 203.728 92.357 204.202 91.9386 204.794C91.5201 205.386 91.3407 206.096 91.3407 206.865C91.3407 207.753 91.6396 208.523 92.1777 209.174C92.7157 209.825 93.6125 210.298 94.7484 210.653L96.8408 211.245C97.1397 211.304 97.3788 211.423 97.6778 211.541C97.9767 211.659 98.156 211.837 98.3354 212.015C98.5147 212.192 98.6343 212.488 98.6343 212.784C98.6343 213.257 98.4549 213.672 98.0365 213.968C97.618 214.264 97.0799 214.382 96.4223 214.382C95.6451 214.382 94.9277 214.145 94.3299 213.731C93.6723 213.317 93.194 212.725 92.8353 211.955L90.6831 212.962C91.1016 214.086 91.819 214.974 92.8353 215.625C93.8516 216.276 95.0473 216.631 96.4223 216.631C97.3788 216.631 98.2756 216.454 98.993 216.158C99.7104 215.803 100.308 215.388 100.727 214.796C101.145 214.264 101.384 213.553 101.384 212.784Z" fill="white"/>
<path d="M106.406 212.133C106.406 213.553 106.765 214.619 107.542 215.388C108.319 216.157 109.395 216.572 110.77 216.572C111.01 216.572 111.249 216.572 111.488 216.513C111.787 216.453 112.026 216.453 112.265 216.394V214.027C112.145 214.027 111.966 214.086 111.787 214.086C111.607 214.086 111.488 214.086 111.368 214.086C110.83 214.086 110.412 214.027 110.113 213.849C109.814 213.672 109.575 213.435 109.395 213.139C109.216 212.843 109.156 212.429 109.156 212.014V205.8H112.145V203.314H109.156V200.295H106.406V201.302C106.406 201.893 106.227 202.426 105.868 202.781C105.51 203.136 105.031 203.314 104.433 203.314H104.075V205.8H106.406V212.133Z" fill="white"/>
<path d="M121.89 216.394C122.488 216.158 123.086 215.862 123.504 215.507C123.743 215.329 123.922 215.092 124.162 214.855V216.394H126.792V207.575C126.792 206.688 126.553 205.859 126.134 205.208C125.656 204.498 125.058 203.965 124.221 203.61C123.384 203.196 122.488 203.018 121.412 203.018C120.575 203.018 119.738 203.136 119.02 203.432C118.303 203.728 117.645 204.083 117.107 204.616C116.569 205.09 116.151 205.681 115.912 206.333L118.243 207.457C118.482 206.865 118.901 206.333 119.439 205.977C119.977 205.622 120.634 205.445 121.352 205.445C122.129 205.445 122.787 205.622 123.265 206.037C123.743 206.451 123.982 206.984 123.982 207.575V208.049L119.738 208.759C118.721 208.937 117.884 209.174 117.227 209.588C116.569 210.002 116.091 210.476 115.732 211.008C115.373 211.541 115.254 212.192 115.254 212.902C115.254 213.672 115.433 214.323 115.792 214.915C116.151 215.507 116.689 215.921 117.346 216.217C118.004 216.513 118.841 216.69 119.738 216.69C120.575 216.749 121.232 216.631 121.89 216.394ZM118.183 212.843C118.183 212.37 118.363 211.896 118.721 211.6C119.08 211.304 119.618 211.008 120.335 210.89L124.042 210.298V211.008C124.042 211.659 123.863 212.251 123.564 212.843C123.265 213.376 122.787 213.79 122.249 214.145C121.711 214.441 121.053 214.619 120.276 214.619C119.678 214.619 119.2 214.441 118.781 214.145C118.422 213.79 118.183 213.376 118.183 212.843Z" fill="white"/>
<path d="M133.249 215.447C134.026 216.217 135.102 216.631 136.477 216.631C136.716 216.631 136.955 216.631 137.194 216.572C137.493 216.513 137.732 216.513 137.972 216.454V214.086C137.852 214.086 137.673 214.145 137.493 214.145C137.314 214.145 137.194 214.145 137.075 214.145C136.537 214.145 136.118 214.086 135.819 213.909C135.52 213.731 135.281 213.494 135.102 213.198C134.923 212.902 134.863 212.488 134.863 212.074V205.859H137.852V203.373H134.863V200.355H132.113V201.361C132.113 201.953 131.933 202.485 131.575 202.841C131.216 203.196 130.738 203.373 130.14 203.373H129.781V205.859H132.113V212.192C132.113 213.553 132.471 214.619 133.249 215.447Z" fill="white"/>
<path d="M153.336 206.925C153.037 206.155 152.618 205.504 152.08 204.912C151.542 204.32 150.885 203.847 150.108 203.492C149.33 203.137 148.434 202.959 147.417 202.959C146.222 202.959 145.086 203.255 144.069 203.847C143.053 204.439 142.276 205.267 141.738 206.273C141.14 207.28 140.901 208.463 140.901 209.765C140.901 211.068 141.2 212.251 141.738 213.257C142.336 214.323 143.113 215.151 144.129 215.743C145.145 216.335 146.281 216.631 147.656 216.631C148.553 216.631 149.39 216.513 150.167 216.217C150.944 215.921 151.602 215.566 152.14 215.092C152.678 214.619 153.097 214.086 153.336 213.435L151.064 212.311C150.705 212.902 150.287 213.317 149.689 213.672C149.151 214.027 148.434 214.204 147.656 214.204C146.879 214.204 146.222 214.027 145.564 213.672C144.966 213.317 144.488 212.784 144.129 212.133C143.89 211.659 143.77 211.186 143.77 210.594H153.635C153.694 210.417 153.694 210.18 153.754 209.943C153.754 209.706 153.754 209.47 153.754 209.292C153.754 208.523 153.635 207.694 153.336 206.925ZM144.129 207.457C144.428 206.806 144.906 206.273 145.444 205.918C145.982 205.563 146.64 205.386 147.357 205.386C148.075 205.386 148.732 205.563 149.271 205.918C149.809 206.273 150.227 206.747 150.466 207.398C150.586 207.753 150.705 208.108 150.705 208.523H143.711C143.89 208.108 144.01 207.753 144.129 207.457Z" fill="white"/>
<path d="M35.4435 237.82L32.2152 236.814C31.438 236.577 30.9 236.222 30.5413 235.808C30.1826 235.334 30.0032 234.861 30.0032 234.269C30.0032 233.795 30.1228 233.322 30.3619 232.967C30.6011 232.611 30.9598 232.316 31.438 232.079C31.9163 231.901 32.4543 231.783 33.0522 231.783C34.0685 231.783 34.9055 232.02 35.6826 232.552C36.4598 233.085 36.9979 233.795 37.3566 234.742L39.7479 233.736C39.449 232.848 38.9707 232.079 38.3131 231.428C37.6555 230.777 36.8783 230.244 35.9816 229.83C35.0848 229.475 34.0685 229.238 32.9924 229.238C31.8565 229.238 30.7804 229.475 29.9434 229.889C29.0467 230.303 28.3293 230.954 27.851 231.724C27.3728 232.493 27.0738 233.381 27.0738 234.387C27.0738 235.571 27.4325 236.577 28.1499 237.465C28.8673 238.353 29.8837 239.004 31.2587 239.418L34.7261 240.483C35.4435 240.72 35.9816 241.016 36.3403 241.371C36.699 241.785 36.8783 242.318 36.8783 242.91C36.8783 243.383 36.7587 243.798 36.4598 244.212C36.1609 244.567 35.8022 244.863 35.3239 245.1C34.8457 245.277 34.2478 245.396 33.65 245.396C32.5141 245.396 31.5576 245.1 30.7206 244.508C29.8837 243.916 29.226 243.028 28.8076 241.963L26.3564 242.969C26.6554 243.916 27.1934 244.804 27.851 245.573C28.5684 246.343 29.4054 246.935 30.3619 247.349C31.3185 247.763 32.3946 248 33.5902 248C34.8457 248 35.9218 247.763 36.8185 247.349C37.7751 246.875 38.4925 246.284 39.0305 245.514C39.5686 244.745 39.8077 243.857 39.8077 242.851C39.8077 241.667 39.449 240.602 38.7316 239.832C37.9544 238.885 36.8783 238.234 35.4435 237.82Z" fill="white"/>
<path d="M53.6774 235.097C52.6611 234.505 51.4654 234.209 50.1502 234.209C48.835 234.209 47.6393 234.505 46.623 235.097C45.6067 235.689 44.7697 236.518 44.1121 237.524C43.5142 238.53 43.2153 239.714 43.2153 241.075C43.2153 242.377 43.5142 243.561 44.1719 244.567C44.7697 245.633 45.6067 246.402 46.6828 246.994C47.6991 247.586 48.8947 247.882 50.21 247.882C51.4654 247.882 52.6611 247.586 53.6774 246.994C54.6937 246.402 55.5307 245.573 56.1883 244.567C56.7861 243.561 57.1448 242.377 57.1448 241.016C57.1448 239.714 56.8459 238.53 56.2481 237.465C55.6503 236.399 54.6937 235.689 53.6774 235.097ZM53.6176 243.265C53.2589 243.916 52.7807 244.449 52.1828 244.804C51.585 245.159 50.8676 245.337 50.1502 245.337C49.373 245.337 48.7154 245.159 48.0578 244.804C47.4002 244.449 46.9817 243.916 46.623 243.265C46.2643 242.614 46.0849 241.845 46.0849 241.016C46.0849 240.187 46.2643 239.477 46.623 238.826C46.9817 238.175 47.4599 237.701 48.0578 237.287C48.6556 236.873 49.373 236.695 50.1502 236.695C50.9274 236.695 51.585 236.873 52.1828 237.287C52.7807 237.642 53.2589 238.175 53.6176 238.826C53.9763 239.477 54.1557 240.187 54.1557 241.016C54.1557 241.904 53.9763 242.614 53.6176 243.265Z" fill="white"/>
<path d="M63.4815 229.238H60.7314V247.586H63.4815V229.238Z" fill="white"/>
<path d="M76.0959 242.259C76.0959 242.91 75.9763 243.443 75.7372 243.916C75.4981 244.39 75.1394 244.745 74.7209 244.982C74.3024 245.218 73.7643 245.396 73.1665 245.396C72.5687 245.396 72.0904 245.278 71.6719 245.041C71.2534 244.804 70.8947 244.449 70.6556 243.976C70.4165 243.502 70.2969 242.969 70.2969 242.377V234.506H67.5469V242.614C67.5469 243.68 67.7262 244.567 68.1447 245.396C68.5632 246.225 69.161 246.816 69.8784 247.29C70.6556 247.763 71.4926 247.941 72.5089 247.941C73.4654 247.941 74.3024 247.704 75.0198 247.29C75.5578 246.994 75.9763 246.58 76.2752 246.047V247.645H78.9057V234.506H76.1557V242.259H76.0959Z" fill="white"/>
<path d="M89.3678 245.337C88.8297 245.337 88.4113 245.278 88.1123 245.1C87.8134 244.922 87.5743 244.686 87.3949 244.39C87.2156 244.094 87.1558 243.679 87.1558 243.265V237.051H90.145V234.565H87.1558V231.546H84.4058V232.552C84.4058 233.144 84.2264 233.677 83.8677 234.032C83.509 234.387 83.0308 234.565 82.4329 234.565H82.0742V237.051H84.4058V243.384C84.4058 244.804 84.7645 245.869 85.5417 246.639C86.3188 247.408 87.3949 247.823 88.77 247.823C89.0091 247.823 89.2482 247.823 89.4874 247.763C89.7863 247.704 90.0254 247.704 90.2645 247.645V245.277C90.145 245.277 89.9656 245.337 89.7863 245.337C89.6667 245.337 89.5471 245.337 89.3678 245.337Z" fill="white"/>
<path d="M96.7212 234.506H93.9712V247.645H96.7212V234.506Z" fill="white"/>
<path d="M96.7212 229.534H93.9712V232.671H96.7212V229.534Z" fill="white"/>
<path d="M110.89 235.097C109.874 234.505 108.678 234.209 107.363 234.209C106.047 234.209 104.852 234.505 103.835 235.097C102.819 235.689 101.982 236.518 101.324 237.524C100.727 238.53 100.428 239.714 100.428 241.075C100.428 242.377 100.727 243.561 101.384 244.567C101.982 245.633 102.819 246.402 103.895 246.994C104.911 247.586 106.107 247.882 107.422 247.882C108.678 247.882 109.874 247.586 110.89 246.994C111.906 246.402 112.743 245.573 113.401 244.567C113.999 243.561 114.357 242.377 114.357 241.016C114.357 239.714 114.058 238.53 113.46 237.465C112.743 236.518 111.906 235.689 110.89 235.097ZM110.83 243.265C110.471 243.916 109.993 244.449 109.395 244.804C108.797 245.159 108.08 245.337 107.363 245.337C106.585 245.337 105.928 245.159 105.27 244.804C104.672 244.449 104.194 243.916 103.835 243.265C103.477 242.614 103.297 241.845 103.297 241.016C103.297 240.187 103.477 239.477 103.835 238.826C104.194 238.175 104.672 237.701 105.27 237.287C105.868 236.932 106.585 236.695 107.363 236.695C108.14 236.695 108.797 236.873 109.395 237.287C109.993 237.642 110.471 238.175 110.83 238.826C111.189 239.477 111.368 240.187 111.368 241.016C111.368 241.904 111.189 242.614 110.83 243.265Z" fill="white"/>
<path d="M126.912 234.861C126.135 234.446 125.298 234.209 124.341 234.209C123.385 234.209 122.548 234.446 121.83 234.861C121.292 235.156 120.874 235.571 120.575 236.103V234.505H117.944V247.645H120.694V239.891C120.694 239.24 120.814 238.708 121.053 238.234C121.292 237.761 121.651 237.406 122.069 237.169C122.548 236.932 123.026 236.755 123.624 236.755C124.222 236.755 124.7 236.873 125.118 237.169C125.537 237.406 125.896 237.761 126.135 238.234C126.374 238.708 126.493 239.24 126.493 239.891V247.645H129.243V239.181C129.243 238.234 129.004 237.346 128.586 236.636C128.287 235.867 127.689 235.275 126.912 234.861Z" fill="white"/>
<path d="M136.417 236.932C136.776 236.636 137.254 236.518 137.852 236.518C138.57 236.518 139.167 236.695 139.765 237.05C140.303 237.406 140.722 237.938 140.961 238.589L143.113 237.583C142.695 236.518 142.037 235.689 141.08 235.097C140.124 234.505 139.048 234.209 137.852 234.209C136.955 234.209 136.118 234.387 135.401 234.683C134.684 234.979 134.146 235.452 133.727 236.044C133.309 236.636 133.129 237.346 133.129 238.116C133.129 239.004 133.428 239.773 133.966 240.424C134.504 241.075 135.401 241.549 136.537 241.904L138.629 242.496C138.928 242.555 139.167 242.673 139.466 242.792C139.765 242.91 139.945 243.088 140.124 243.265C140.303 243.443 140.423 243.739 140.423 244.034C140.423 244.508 140.244 244.922 139.825 245.218C139.407 245.514 138.868 245.633 138.211 245.633C137.434 245.633 136.716 245.396 136.118 244.981C135.461 244.567 134.983 243.975 134.624 243.206L132.472 244.212C132.89 245.337 133.608 246.224 134.624 246.875C135.64 247.527 136.836 247.882 138.211 247.882C139.167 247.882 140.064 247.704 140.782 247.408C141.499 247.053 142.097 246.639 142.515 246.047C142.934 245.455 143.113 244.745 143.113 243.975C143.113 243.088 142.814 242.318 142.216 241.608C141.619 240.898 140.782 240.483 139.705 240.187L137.553 239.536C137.254 239.477 137.015 239.359 136.716 239.24C136.477 239.122 136.238 238.944 136.059 238.767C135.879 238.589 135.82 238.293 135.82 237.997C135.879 237.583 136.059 237.169 136.417 236.932Z" fill="white"/>
</svg>
